<mxfile host="app.diagrams.net" modified="2021-02-27T10:32:26.174Z" agent="5.0 (Macintosh; Intel Mac OS X 11_1_0) AppleWebKit/537.36 (KHTML, like Gecko) Chrome/88.0.4324.182 Safari/537.36" etag="xxc3D6M-8mBNh1YrRkzx" version="14.3.0" type="github">
  <diagram id="kgpKYQtTHZ0yAKxKKP6v" name="Page-1">
    <mxGraphModel dx="1527" dy="908" grid="1" gridSize="10" guides="1" tooltips="1" connect="1" arrows="1" fold="1" page="1" pageScale="1" pageWidth="850" pageHeight="1100" math="0" shadow="0">
      <root>
        <mxCell id="0" />
        <mxCell id="1" parent="0" />
        <mxCell id="dDlLGJxj14NWyJv1FB35-6" value="Player" style="shape=umlLifeline;participant=umlActor;perimeter=lifelinePerimeter;whiteSpace=wrap;html=1;container=1;collapsible=0;recursiveResize=0;verticalAlign=top;spacingTop=36;outlineConnect=0;" vertex="1" parent="1">
          <mxGeometry x="160" y="90" width="20" height="750" as="geometry" />
        </mxCell>
        <mxCell id="dDlLGJxj14NWyJv1FB35-15" value="" style="html=1;points=[];perimeter=orthogonalPerimeter;" vertex="1" parent="dDlLGJxj14NWyJv1FB35-6">
          <mxGeometry x="5" y="80" width="10" height="140" as="geometry" />
        </mxCell>
        <mxCell id="dDlLGJxj14NWyJv1FB35-16" value="createBattle" style="html=1;verticalAlign=bottom;startArrow=oval;endArrow=block;startSize=8;" edge="1" target="dDlLGJxj14NWyJv1FB35-15" parent="dDlLGJxj14NWyJv1FB35-6">
          <mxGeometry relative="1" as="geometry">
            <mxPoint x="-80" y="80" as="sourcePoint" />
          </mxGeometry>
        </mxCell>
        <mxCell id="dDlLGJxj14NWyJv1FB35-27" value="" style="html=1;points=[];perimeter=orthogonalPerimeter;" vertex="1" parent="dDlLGJxj14NWyJv1FB35-6">
          <mxGeometry x="5" y="550" width="10" height="180" as="geometry" />
        </mxCell>
        <mxCell id="dDlLGJxj14NWyJv1FB35-46" value="" style="html=1;points=[];perimeter=orthogonalPerimeter;" vertex="1" parent="dDlLGJxj14NWyJv1FB35-6">
          <mxGeometry x="5" y="230" width="10" height="160" as="geometry" />
        </mxCell>
        <mxCell id="dDlLGJxj14NWyJv1FB35-47" value="" style="html=1;points=[];perimeter=orthogonalPerimeter;" vertex="1" parent="dDlLGJxj14NWyJv1FB35-6">
          <mxGeometry x="5" y="400" width="10" height="80" as="geometry" />
        </mxCell>
        <mxCell id="dDlLGJxj14NWyJv1FB35-17" value="Firestore" style="shape=umlLifeline;perimeter=lifelinePerimeter;whiteSpace=wrap;html=1;container=1;collapsible=0;recursiveResize=0;outlineConnect=0;" vertex="1" parent="1">
          <mxGeometry x="380" y="100" width="100" height="740" as="geometry" />
        </mxCell>
        <mxCell id="dDlLGJxj14NWyJv1FB35-18" value="" style="html=1;points=[];perimeter=orthogonalPerimeter;" vertex="1" parent="dDlLGJxj14NWyJv1FB35-17">
          <mxGeometry x="45" y="70" width="10" height="100" as="geometry" />
        </mxCell>
        <mxCell id="dDlLGJxj14NWyJv1FB35-24" value="" style="html=1;points=[];perimeter=orthogonalPerimeter;" vertex="1" parent="dDlLGJxj14NWyJv1FB35-17">
          <mxGeometry x="45" y="540" width="10" height="130" as="geometry" />
        </mxCell>
        <mxCell id="dDlLGJxj14NWyJv1FB35-29" value="createDocument()" style="edgeStyle=orthogonalEdgeStyle;html=1;align=left;spacingLeft=2;endArrow=block;rounded=0;entryX=1;entryY=0;" edge="1" parent="dDlLGJxj14NWyJv1FB35-17">
          <mxGeometry relative="1" as="geometry">
            <mxPoint x="54" y="140" as="sourcePoint" />
            <Array as="points">
              <mxPoint x="79" y="140" />
            </Array>
            <mxPoint x="49" y="160" as="targetPoint" />
          </mxGeometry>
        </mxCell>
        <mxCell id="dDlLGJxj14NWyJv1FB35-48" value="" style="html=1;points=[];perimeter=orthogonalPerimeter;" vertex="1" parent="dDlLGJxj14NWyJv1FB35-17">
          <mxGeometry x="45" y="390" width="10" height="100" as="geometry" />
        </mxCell>
        <mxCell id="dDlLGJxj14NWyJv1FB35-19" value="firestore.collections(&quot;battles&quot;).doc()" style="html=1;verticalAlign=bottom;endArrow=block;entryX=0;entryY=0;" edge="1" target="dDlLGJxj14NWyJv1FB35-18" parent="1" source="dDlLGJxj14NWyJv1FB35-6">
          <mxGeometry relative="1" as="geometry">
            <mxPoint x="440" y="170" as="sourcePoint" />
          </mxGeometry>
        </mxCell>
        <mxCell id="dDlLGJxj14NWyJv1FB35-20" value="createdBattleDocument" style="html=1;verticalAlign=bottom;endArrow=open;dashed=1;endSize=8;exitX=0;exitY=0.95;" edge="1" source="dDlLGJxj14NWyJv1FB35-18" parent="1" target="dDlLGJxj14NWyJv1FB35-15">
          <mxGeometry relative="1" as="geometry">
            <mxPoint x="440" y="246" as="targetPoint" />
          </mxGeometry>
        </mxCell>
        <mxCell id="dDlLGJxj14NWyJv1FB35-23" value="enterBattleId" style="html=1;verticalAlign=bottom;startArrow=oval;startFill=1;endArrow=block;startSize=8;" edge="1" parent="1">
          <mxGeometry width="60" relative="1" as="geometry">
            <mxPoint x="80" y="640" as="sourcePoint" />
            <mxPoint x="169.5" y="640" as="targetPoint" />
          </mxGeometry>
        </mxCell>
        <mxCell id="dDlLGJxj14NWyJv1FB35-25" value="firestore.collections(&quot;battles&quot;).doc(battleId).&lt;br&gt;set(opponent: currentPlayer)" style="html=1;verticalAlign=bottom;endArrow=block;entryX=0;entryY=0;" edge="1" target="dDlLGJxj14NWyJv1FB35-24" parent="1">
          <mxGeometry relative="1" as="geometry">
            <mxPoint x="174" y="640" as="sourcePoint" />
          </mxGeometry>
        </mxCell>
        <mxCell id="dDlLGJxj14NWyJv1FB35-26" value="updatedBattleDocument" style="html=1;verticalAlign=bottom;endArrow=open;dashed=1;endSize=8;exitX=0;exitY=0.95;entryX=1.153;entryY=0.697;entryDx=0;entryDy=0;entryPerimeter=0;" edge="1" source="dDlLGJxj14NWyJv1FB35-24" parent="1" target="dDlLGJxj14NWyJv1FB35-27">
          <mxGeometry relative="1" as="geometry">
            <mxPoint x="180" y="764" as="targetPoint" />
          </mxGeometry>
        </mxCell>
        <mxCell id="dDlLGJxj14NWyJv1FB35-30" value="checkUserIsAuthenticated()" style="edgeStyle=orthogonalEdgeStyle;html=1;align=left;spacingLeft=2;endArrow=block;rounded=0;entryX=1;entryY=0;" edge="1" parent="1">
          <mxGeometry relative="1" as="geometry">
            <mxPoint x="435" y="640" as="sourcePoint" />
            <Array as="points">
              <mxPoint x="460" y="640" />
            </Array>
            <mxPoint x="430" y="660" as="targetPoint" />
          </mxGeometry>
        </mxCell>
        <mxCell id="dDlLGJxj14NWyJv1FB35-31" value="checkBattleIdExists()" style="edgeStyle=orthogonalEdgeStyle;html=1;align=left;spacingLeft=2;endArrow=block;rounded=0;entryX=1;entryY=0;" edge="1" parent="1">
          <mxGeometry relative="1" as="geometry">
            <mxPoint x="435" y="680" as="sourcePoint" />
            <Array as="points">
              <mxPoint x="460" y="680" />
            </Array>
            <mxPoint x="430" y="700" as="targetPoint" />
          </mxGeometry>
        </mxCell>
        <mxCell id="dDlLGJxj14NWyJv1FB35-32" value="checkUserIsAuthenticated()" style="edgeStyle=orthogonalEdgeStyle;html=1;align=left;spacingLeft=2;endArrow=block;rounded=0;entryX=1;entryY=0;" edge="1" parent="1">
          <mxGeometry relative="1" as="geometry">
            <mxPoint x="434" y="170" as="sourcePoint" />
            <Array as="points">
              <mxPoint x="459" y="170" />
            </Array>
            <mxPoint x="429" y="190" as="targetPoint" />
          </mxGeometry>
        </mxCell>
        <mxCell id="dDlLGJxj14NWyJv1FB35-33" value="checkWizardEqualsAuthenticatedUser()" style="edgeStyle=orthogonalEdgeStyle;html=1;align=left;spacingLeft=2;endArrow=block;rounded=0;entryX=1;entryY=0;" edge="1" parent="1">
          <mxGeometry relative="1" as="geometry">
            <mxPoint x="434" y="207" as="sourcePoint" />
            <Array as="points">
              <mxPoint x="459" y="207" />
            </Array>
            <mxPoint x="429" y="227" as="targetPoint" />
          </mxGeometry>
        </mxCell>
        <mxCell id="dDlLGJxj14NWyJv1FB35-34" value="checkOpponentEqualsAuthenticatedUser()" style="edgeStyle=orthogonalEdgeStyle;html=1;align=left;spacingLeft=2;endArrow=block;rounded=0;entryX=1;entryY=0;" edge="1" parent="1">
          <mxGeometry relative="1" as="geometry">
            <mxPoint x="435" y="720" as="sourcePoint" />
            <Array as="points">
              <mxPoint x="460" y="720" />
            </Array>
            <mxPoint x="430" y="740" as="targetPoint" />
          </mxGeometry>
        </mxCell>
        <mxCell id="dDlLGJxj14NWyJv1FB35-35" value="setCurrentBattle()" style="edgeStyle=orthogonalEdgeStyle;html=1;align=left;spacingLeft=2;endArrow=block;rounded=0;entryX=1;entryY=0;" edge="1" parent="1">
          <mxGeometry relative="1" as="geometry">
            <mxPoint x="175" y="280" as="sourcePoint" />
            <Array as="points">
              <mxPoint x="200" y="280" />
            </Array>
            <mxPoint x="170" y="300" as="targetPoint" />
          </mxGeometry>
        </mxCell>
        <mxCell id="dDlLGJxj14NWyJv1FB35-36" value="" style="line;strokeWidth=1;fillColor=none;align=left;verticalAlign=middle;spacingTop=-1;spacingLeft=3;spacingRight=3;rotatable=0;labelPosition=right;points=[];portConstraint=eastwest;" vertex="1" parent="1">
          <mxGeometry x="70" y="599" width="440" height="8" as="geometry" />
        </mxCell>
        <mxCell id="dDlLGJxj14NWyJv1FB35-37" value="Player2" style="text;html=1;strokeColor=none;fillColor=none;align=center;verticalAlign=middle;whiteSpace=wrap;rounded=0;" vertex="1" parent="1">
          <mxGeometry x="80" y="580" width="40" height="20" as="geometry" />
        </mxCell>
        <mxCell id="dDlLGJxj14NWyJv1FB35-40" value="navigateToBattleScreen()" style="edgeStyle=orthogonalEdgeStyle;html=1;align=left;spacingLeft=2;endArrow=block;rounded=0;entryX=1;entryY=0;" edge="1" parent="1">
          <mxGeometry x="0.3328" relative="1" as="geometry">
            <mxPoint x="170" y="780" as="sourcePoint" />
            <Array as="points">
              <mxPoint x="200" y="780" />
              <mxPoint x="200" y="800" />
            </Array>
            <mxPoint x="175" y="800" as="targetPoint" />
            <mxPoint x="1" as="offset" />
          </mxGeometry>
        </mxCell>
        <mxCell id="dDlLGJxj14NWyJv1FB35-41" value="" style="html=1;points=[];perimeter=orthogonalPerimeter;" vertex="1" parent="1">
          <mxGeometry x="424" y="324" width="10" height="80" as="geometry" />
        </mxCell>
        <mxCell id="dDlLGJxj14NWyJv1FB35-42" value="listenForDataChangesOnBattle()" style="html=1;verticalAlign=bottom;endArrow=block;entryX=0;entryY=0;" edge="1" target="dDlLGJxj14NWyJv1FB35-41" parent="1">
          <mxGeometry relative="1" as="geometry">
            <mxPoint x="173" y="324" as="sourcePoint" />
          </mxGeometry>
        </mxCell>
        <mxCell id="dDlLGJxj14NWyJv1FB35-43" value="battleDocumentUpdateSnapshot" style="html=1;verticalAlign=bottom;endArrow=open;dashed=1;endSize=8;exitX=0;exitY=0.95;entryX=1.035;entryY=0.724;entryDx=0;entryDy=0;entryPerimeter=0;" edge="1" source="dDlLGJxj14NWyJv1FB35-41" parent="1">
          <mxGeometry relative="1" as="geometry">
            <mxPoint x="175.3499999999999" y="398.44000000000005" as="targetPoint" />
          </mxGeometry>
        </mxCell>
        <mxCell id="dDlLGJxj14NWyJv1FB35-44" value="checkUpdatedOpponent()" style="edgeStyle=orthogonalEdgeStyle;html=1;align=left;spacingLeft=2;endArrow=block;rounded=0;entryX=1;entryY=0;" edge="1" parent="1">
          <mxGeometry relative="1" as="geometry">
            <mxPoint x="175" y="414" as="sourcePoint" />
            <Array as="points">
              <mxPoint x="200" y="414" />
            </Array>
            <mxPoint x="170" y="434" as="targetPoint" />
          </mxGeometry>
        </mxCell>
        <mxCell id="dDlLGJxj14NWyJv1FB35-45" value="navigateToBattleScreen()" style="edgeStyle=orthogonalEdgeStyle;html=1;align=left;spacingLeft=2;endArrow=block;rounded=0;entryX=1;entryY=0;" edge="1" parent="1">
          <mxGeometry relative="1" as="geometry">
            <mxPoint x="176" y="447" as="sourcePoint" />
            <Array as="points">
              <mxPoint x="201" y="447" />
            </Array>
            <mxPoint x="171" y="467" as="targetPoint" />
          </mxGeometry>
        </mxCell>
        <mxCell id="dDlLGJxj14NWyJv1FB35-49" value="cancelCreateBattle()" style="html=1;verticalAlign=bottom;endArrow=block;entryX=0;entryY=0;" edge="1" target="dDlLGJxj14NWyJv1FB35-48" parent="1">
          <mxGeometry relative="1" as="geometry">
            <mxPoint x="169" y="490" as="sourcePoint" />
          </mxGeometry>
        </mxCell>
        <mxCell id="dDlLGJxj14NWyJv1FB35-51" value="navigateToMenu()" style="edgeStyle=orthogonalEdgeStyle;html=1;align=left;spacingLeft=2;endArrow=block;rounded=0;entryX=1;entryY=0;" edge="1" parent="1">
          <mxGeometry relative="1" as="geometry">
            <mxPoint x="176" y="547" as="sourcePoint" />
            <Array as="points">
              <mxPoint x="201" y="547" />
            </Array>
            <mxPoint x="171" y="567" as="targetPoint" />
          </mxGeometry>
        </mxCell>
        <mxCell id="dDlLGJxj14NWyJv1FB35-52" value="setCurrentBattle(null)" style="edgeStyle=orthogonalEdgeStyle;html=1;align=left;spacingLeft=2;endArrow=block;rounded=0;entryX=1;entryY=0;" edge="1" parent="1">
          <mxGeometry relative="1" as="geometry">
            <mxPoint x="176" y="507" as="sourcePoint" />
            <Array as="points">
              <mxPoint x="201" y="507" />
            </Array>
            <mxPoint x="171" y="527" as="targetPoint" />
          </mxGeometry>
        </mxCell>
        <mxCell id="dDlLGJxj14NWyJv1FB35-54" value="deleteDocument()" style="edgeStyle=orthogonalEdgeStyle;html=1;align=left;spacingLeft=2;endArrow=block;rounded=0;entryX=1;entryY=0;" edge="1" parent="1">
          <mxGeometry relative="1" as="geometry">
            <mxPoint x="434" y="560" as="sourcePoint" />
            <Array as="points">
              <mxPoint x="459" y="560" />
            </Array>
            <mxPoint x="429" y="580" as="targetPoint" />
          </mxGeometry>
        </mxCell>
        <mxCell id="dDlLGJxj14NWyJv1FB35-55" value="checkUserIsAuthenticated()" style="edgeStyle=orthogonalEdgeStyle;html=1;align=left;spacingLeft=2;endArrow=block;rounded=0;entryX=1;entryY=0;" edge="1" parent="1">
          <mxGeometry relative="1" as="geometry">
            <mxPoint x="434" y="490" as="sourcePoint" />
            <Array as="points">
              <mxPoint x="459" y="490" />
            </Array>
            <mxPoint x="429" y="510" as="targetPoint" />
          </mxGeometry>
        </mxCell>
        <mxCell id="dDlLGJxj14NWyJv1FB35-56" value="checkUserIsDocumentOwner()" style="edgeStyle=orthogonalEdgeStyle;html=1;align=left;spacingLeft=2;endArrow=block;rounded=0;entryX=1;entryY=0;" edge="1" parent="1">
          <mxGeometry relative="1" as="geometry">
            <mxPoint x="434" y="527" as="sourcePoint" />
            <Array as="points">
              <mxPoint x="459" y="527" />
            </Array>
            <mxPoint x="429" y="547" as="targetPoint" />
          </mxGeometry>
        </mxCell>
      </root>
    </mxGraphModel>
  </diagram>
</mxfile>
